<svg width="586" height="453" viewBox="0 0 586 453" fill="none" xmlns="http://www.w3.org/2000/svg">
<path d="M308.31 418.547L532.935 296.641C534.554 295.798 535.917 294.534 536.882 292.983C537.846 291.431 538.377 289.648 538.418 287.821C538.46 285.993 538.01 284.188 537.117 282.594C536.223 281.001 534.919 279.676 533.34 278.76L315.585 148.365C313.919 147.374 312.022 146.839 310.085 146.813C308.148 146.786 306.237 147.27 304.545 148.215L66.93 281.51C65.3132 282.384 63.9627 283.68 63.0214 285.261C62.0801 286.842 61.5831 288.648 61.5831 290.488C61.5831 292.329 62.0801 294.135 63.0214 295.715C63.9627 297.296 65.3132 298.592 66.93 299.466L278.805 418.337C283.309 420.852 288.374 422.19 293.531 422.227C298.687 422.264 303.77 420.998 308.31 418.547Z" fill="#00275E"/>
<path d="M270.285 237.484C270.285 237.484 224.85 261.781 214.095 319.751C214.095 319.751 258.345 329.143 317.595 280.053" fill="#EB773A"/>
<path d="M269.715 244.877C269.715 244.877 250.335 262.292 244.875 274.583C239.415 286.874 232.29 304.861 232.29 304.861C232.29 304.861 266.415 307.776 298.5 288.107C330.585 268.438 300 231.654 269.715 244.877Z" fill="#FFAE46"/>
<path d="M288.975 238.761C287.805 240.73 267.84 251.999 264.105 268.257L270.615 263.314C270.615 263.314 259.545 278.851 254.85 287.791C254.85 287.791 281.85 277.017 281.01 277.663L273.375 283.464C273.375 283.464 293.91 283.028 307.875 270.526C321.84 258.025 302.64 236.222 302.64 236.222L288.975 238.761Z" fill="#FAD374"/>
<path d="M349.23 238.611C349.23 238.611 345.705 261.526 338.16 267.16C330.615 272.795 306.12 291.472 306.12 291.472L302.055 286.093C302.055 286.093 318.945 255.936 321.93 242.623C324.915 229.31 349.23 238.611 349.23 238.611Z" fill="#68E1FD"/>
<path opacity="0.61" d="M349.23 238.611C349.23 238.611 345.705 261.526 338.16 267.16C330.615 272.795 306.12 291.472 306.12 291.472L302.055 286.093C302.055 286.093 318.945 255.936 321.93 242.623C324.915 229.31 349.23 238.611 349.23 238.611Z" fill="#363636"/>
<path d="M324.84 206.365C324.84 206.365 301.86 203.57 294.33 209.37C286.8 215.17 262.29 233.682 262.29 233.682L266.355 239.062C266.355 239.062 299.91 230.933 313.515 231.669C327.12 232.405 324.84 206.365 324.84 206.365Z" fill="#68E1FD"/>
<path opacity="0.61" d="M324.84 206.365C324.84 206.365 301.86 203.57 294.33 209.37C286.8 215.17 262.29 233.682 262.29 233.682L266.355 239.062C266.355 239.062 299.91 230.933 313.515 231.669C327.12 232.405 324.84 206.365 324.84 206.365Z" fill="#363636"/>
<path d="M435.165 167.899C441.24 158.393 446.145 148.186 449.775 137.501C449.775 137.501 436.425 137.651 416.475 143.602C418.065 153.774 426.18 161.888 435.165 167.899Z" fill="#68E1FD"/>
<path d="M381.648 209.197C387.987 204.386 388.701 194.635 383.243 187.419C377.784 180.203 368.221 178.253 361.882 183.064C355.543 187.875 354.829 197.625 360.287 204.842C365.746 212.058 375.309 214.008 381.648 209.197Z" fill="#68E1FD"/>
<path d="M496.395 101.529C496.395 101.529 370.695 132.843 306.825 225.553C306.825 225.553 291.825 241.586 299.07 250.496C306.315 259.407 330.465 252.315 330.465 252.315C330.465 252.315 409.83 229.746 496.395 101.529Z" fill="#68E1FD"/>
<path d="M306.825 225.553C306.825 225.553 290.985 223.63 285.825 227.582C280.665 231.534 263.745 244.336 263.745 244.336L266.55 248.047C266.55 248.047 289.68 242.443 299.04 242.953C308.4 243.464 306.825 225.553 306.825 225.553Z" fill="#68E1FD"/>
<path d="M325.905 250.782C325.905 250.782 323.475 266.574 318.27 270.511C313.065 274.448 296.19 287.265 296.19 287.265L293.4 283.599C293.4 283.599 305.04 262.818 307.095 253.637C309.15 244.456 325.905 250.782 325.905 250.782Z" fill="#68E1FD"/>
<path opacity="0.29" d="M306.825 225.553C306.825 225.553 290.985 223.63 285.825 227.582C280.665 231.534 263.745 244.336 263.745 244.336L266.55 248.047C266.55 248.047 289.68 242.443 299.04 242.953C308.4 243.464 306.825 225.553 306.825 225.553Z" fill="#363636"/>
<path opacity="0.29" d="M325.905 250.782C325.905 250.782 323.475 266.574 318.27 270.511C313.065 274.448 296.19 287.265 296.19 287.265L293.4 283.599C293.4 283.599 305.04 262.818 307.095 253.637C309.15 244.456 325.905 250.782 325.905 250.782Z" fill="#363636"/>
<path d="M435.33 124.113C435.33 124.113 434.895 145.405 457.395 153.293L444.345 168.139C444.345 168.139 416.085 152.227 420.465 131.325L435.33 124.113Z" fill="#68E1FD"/>
<path d="M354.615 173.473C354.615 173.473 354.87 209.536 388.44 219.798L363.51 236.868C363.51 236.868 327.51 224.351 334.185 192.271L354.615 173.473Z" fill="#68E1FD"/>
<path d="M415.293 168.274C417.525 166.58 417.964 163.395 416.273 161.159C414.582 158.923 411.402 158.484 409.17 160.178C406.938 161.872 406.499 165.057 408.19 167.293C409.881 169.529 413.062 169.968 415.293 168.274Z" fill="#68E1FD"/>
<path d="M396.882 194.876C402.728 190.485 403.912 182.178 399.528 176.322C395.144 170.467 386.852 169.28 381.006 173.672C375.161 178.063 373.976 186.37 378.36 192.226C382.744 198.081 391.037 199.268 396.882 194.876Z" fill="#68E1FD"/>
<path opacity="0.61" d="M435.33 124.113C435.33 124.113 434.895 145.405 457.395 153.293L444.345 168.139C444.345 168.139 416.085 152.227 420.465 131.325L435.33 124.113Z" fill="#606060"/>
<path opacity="0.61" d="M354.615 173.473C354.615 173.473 354.87 209.536 388.44 219.798L363.51 236.868C363.51 236.868 327.51 224.351 334.185 192.271L354.615 173.473Z" fill="#606060"/>
<path opacity="0.61" d="M415.293 168.274C417.525 166.58 417.964 163.395 416.273 161.159C414.582 158.923 411.402 158.484 409.17 160.178C406.938 161.872 406.499 165.057 408.19 167.293C409.881 169.529 413.062 169.968 415.293 168.274Z" fill="#606060"/>
<path opacity="0.61" d="M396.882 194.876C402.728 190.485 403.912 182.178 399.528 176.322C395.144 170.467 386.852 169.28 381.006 173.672C375.161 178.063 373.976 186.37 378.36 192.226C382.744 198.081 391.037 199.268 396.882 194.876Z" fill="#606060"/>
<path d="M459.45 260.955C459.052 260.955 458.671 261.113 458.389 261.395C458.108 261.676 457.95 262.059 457.95 262.457C457.95 262.856 458.108 263.238 458.389 263.52C458.671 263.801 459.052 263.96 459.45 263.96C459.848 263.96 460.229 263.801 460.511 263.52C460.792 263.238 460.95 262.856 460.95 262.457C460.95 262.059 460.792 261.676 460.511 261.395C460.229 261.113 459.848 260.955 459.45 260.955Z" fill="white"/>
<path d="M383.46 320.803V321.765C383.46 322.163 383.618 322.545 383.899 322.827C384.181 323.109 384.562 323.267 384.96 323.267C385.358 323.267 385.739 323.109 386.021 322.827C386.302 322.545 386.46 322.163 386.46 321.765V320.803C386.46 320.405 386.302 320.022 386.021 319.741C385.739 319.459 385.358 319.3 384.96 319.3C384.562 319.3 384.181 319.459 383.899 319.741C383.618 320.022 383.46 320.405 383.46 320.803Z" fill="white"/>
<path d="M278.4 344.724V345.686C278.4 346.085 278.558 346.467 278.839 346.749C279.121 347.03 279.502 347.189 279.9 347.189C280.298 347.189 280.679 347.03 280.961 346.749C281.242 346.467 281.4 346.085 281.4 345.686V344.724C281.4 344.326 281.242 343.944 280.961 343.662C280.679 343.38 280.298 343.222 279.9 343.222C279.502 343.222 279.121 343.38 278.839 343.662C278.558 343.944 278.4 344.326 278.4 344.724Z" fill="white"/>
<path d="M376.365 271.473C375.967 271.473 375.586 271.631 375.304 271.913C375.023 272.195 374.865 272.577 374.865 272.975C374.865 273.374 375.023 273.756 375.304 274.038C375.586 274.32 375.967 274.478 376.365 274.478C376.763 274.478 377.144 274.32 377.426 274.038C377.707 273.756 377.865 273.374 377.865 272.975C377.865 272.577 377.707 272.195 377.426 271.913C377.144 271.631 376.763 271.473 376.365 271.473Z" fill="white"/>
<path d="M196.815 268.573C196.417 268.573 196.036 268.731 195.754 269.013C195.473 269.295 195.315 269.677 195.315 270.075C195.315 270.474 195.473 270.856 195.754 271.138C196.036 271.42 196.417 271.578 196.815 271.578C197.213 271.578 197.594 271.42 197.876 271.138C198.157 270.856 198.315 270.474 198.315 270.075C198.315 269.677 198.157 269.295 197.876 269.013C197.594 268.731 197.213 268.573 196.815 268.573Z" fill="white"/>
<path d="M129.405 272.975V273.937C129.405 274.336 129.563 274.718 129.844 275C130.126 275.281 130.507 275.44 130.905 275.44C131.303 275.44 131.684 275.281 131.966 275C132.247 274.718 132.405 274.336 132.405 273.937V272.975C132.405 272.577 132.247 272.195 131.966 271.913C131.684 271.631 131.303 271.473 130.905 271.473C130.507 271.473 130.126 271.631 129.844 271.913C129.563 272.195 129.405 272.577 129.405 272.975Z" fill="white"/>
<path d="M161.475 320.262C161.077 320.262 160.696 320.42 160.414 320.702C160.133 320.984 159.975 321.366 159.975 321.765C159.975 322.163 160.133 322.545 160.414 322.827C160.696 323.109 161.077 323.267 161.475 323.267C161.873 323.267 162.254 323.109 162.536 322.827C162.817 322.545 162.975 322.163 162.975 321.765C162.975 321.366 162.817 320.984 162.536 320.702C162.254 320.42 161.873 320.262 161.475 320.262Z" fill="white"/>
<path d="M211.14 235.11C210.742 235.11 210.361 235.268 210.079 235.55C209.798 235.832 209.64 236.214 209.64 236.612C209.64 237.011 209.798 237.393 210.079 237.675C210.361 237.957 210.742 238.115 211.14 238.115C211.538 238.115 211.919 237.957 212.201 237.675C212.482 237.393 212.64 237.011 212.64 236.612C212.64 236.214 212.482 235.832 212.201 235.55C211.919 235.268 211.538 235.11 211.14 235.11Z" fill="white"/>
<path d="M284.67 187.282C284.272 187.282 283.891 187.44 283.609 187.722C283.328 188.004 283.17 188.386 283.17 188.785C283.17 189.183 283.328 189.565 283.609 189.847C283.891 190.129 284.272 190.287 284.67 190.287C285.068 190.287 285.449 190.129 285.731 189.847C286.012 189.565 286.17 189.183 286.17 188.785C286.17 188.386 286.012 188.004 285.731 187.722C285.449 187.44 285.068 187.282 284.67 187.282Z" fill="white"/>
<path d="M329.565 374.791C329.167 374.791 328.786 374.95 328.504 375.231C328.223 375.513 328.065 375.895 328.065 376.294C328.065 376.693 328.223 377.075 328.504 377.357C328.786 377.638 329.167 377.797 329.565 377.797C329.963 377.797 330.344 377.638 330.626 377.357C330.907 377.075 331.065 376.693 331.065 376.294C331.065 375.895 330.907 375.513 330.626 375.231C330.344 374.95 329.963 374.791 329.565 374.791Z" fill="white"/>
<path d="M428.88 290.33C419.235 290.33 419.205 305.356 428.88 305.356C438.555 305.356 438.555 290.33 428.88 290.33Z" fill="#FFAE46"/>
<path d="M159.57 281.72C149.925 281.72 149.895 296.746 159.57 296.746C169.245 296.746 169.23 281.72 159.57 281.72Z" fill="#FFAE46"/>
<path d="M303.345 380.546C301.939 379.138 300.031 378.347 298.043 378.347C296.054 378.347 294.147 379.138 292.74 380.546C291.361 381.976 290.578 383.878 290.55 385.866V386.827C290.572 388.816 291.356 390.72 292.74 392.146C294.147 393.555 296.054 394.346 298.043 394.346C300.031 394.346 301.939 393.555 303.345 392.146C304.724 390.717 305.507 388.815 305.535 386.827V385.866C305.513 383.877 304.729 381.972 303.345 380.546Z" fill="#00AEE1"/>
<path d="M166.125 179.529C184.185 179.529 198.825 164.863 198.825 146.772C198.825 128.681 184.185 114.016 166.125 114.016C148.065 114.016 133.425 128.681 133.425 146.772C133.425 164.863 148.065 179.529 166.125 179.529Z" fill="#68E1FD"/>
<path d="M192.72 128.756C196.17 127.803 199.677 127.07 203.22 126.562C204.999 126.292 206.792 126.121 208.59 126.051C210.456 125.946 212.329 126.057 214.17 126.382C215.235 126.563 216.254 126.951 217.17 127.524C217.722 127.888 218.192 128.364 218.55 128.921C218.925 129.529 219.142 130.221 219.18 130.935C219.193 132.115 218.92 133.28 218.385 134.331C217.96 135.224 217.458 136.079 216.885 136.885C214.611 139.811 211.98 142.441 209.055 144.714C203.44 149.191 197.476 153.211 191.22 156.734C185.031 160.319 178.657 163.574 172.125 166.486C165.592 169.447 158.884 172.006 152.04 174.149C148.591 175.252 145.086 176.17 141.54 176.899C137.906 177.698 134.214 178.206 130.5 178.417C128.597 178.515 126.689 178.439 124.8 178.191C122.779 177.962 120.812 177.393 118.98 176.509C117.974 176.023 117.052 175.379 116.25 174.6C115.35 173.709 114.703 172.594 114.375 171.37C114.085 170.2 114.085 168.978 114.375 167.809C114.622 166.792 115 165.812 115.5 164.893C117.477 161.696 120.018 158.885 123 156.599C125.754 154.315 128.7 152.274 131.805 150.499C129.232 152.879 126.779 155.387 124.455 158.012C122.13 160.495 120.203 163.323 118.74 166.396C118.151 167.568 118.012 168.915 118.35 170.183C118.544 170.653 118.853 171.067 119.25 171.385C119.763 171.785 120.328 172.113 120.93 172.361C123.914 173.352 127.083 173.655 130.2 173.248C136.994 172.457 143.68 170.915 150.135 168.65C156.735 166.516 163.17 163.842 169.635 161.137C182.428 155.647 194.672 148.956 206.205 141.152C208.975 139.235 211.534 137.029 213.84 134.571C214.352 133.996 214.813 133.377 215.22 132.723C215.539 132.22 215.753 131.658 215.85 131.07C215.864 130.87 215.823 130.669 215.734 130.49C215.644 130.31 215.508 130.158 215.34 130.048C214.773 129.635 214.139 129.325 213.465 129.132C210.147 128.333 206.733 128.009 203.325 128.17C199.77 128.185 196.245 128.395 192.72 128.756Z" fill="#8CC63F"/>
</svg>
