<svg width="492" height="529" viewBox="0 0 492 529" fill="none" xmlns="http://www.w3.org/2000/svg">
<path d="M56.9999 99C116.151 126.786 176.512 -27.7046 209 29C238.745 80.9183 82.2945 105.745 119 153C149.185 191.86 215.779 113.41 245 153C274.055 192.365 178.171 235.008 209 273C242.204 313.919 303.783 207.693 341 245C376.031 280.115 325 371 325 371C325 371 375.686 330.015 413 333C486.139 338.85 307.55 427.732 325 499C340.054 560.481 424.221 513.211 492 462.909V-0.5H1.18188C7.83476 30.9495 23.6475 83.333 56.9999 99Z" fill="white" stroke="white"/>
</svg>
